<svg xmlns="http://www.w3.org/2000/svg" id="e4110a9f-f3dd-43c7-a69f-77d1c85ae255" data-name="Layer 1" width="1137.93" height="741.16" viewBox="0 0 1137.93 741.16"><title>financial data</title><polygon points="659.38 709.16 481.19 706.88 481.71 702.31 490.33 626.92 646.82 626.92 658.33 702.31 659.21 708.02 659.38 709.16" fill="#2f2e41"/><polygon points="659.21 708.02 570.28 708.02 481.19 706.88 481.71 702.31 658.33 702.31 659.21 708.02" opacity="0.1"/><rect x="451.49" y="703.45" width="236.45" height="5.71" fill="#3f3d56"/><path d="M944.57,253.53a14.87,14.87,0,0,0-14.8-14.94H269.45a14.87,14.87,0,0,0-14.8,14.94V653.79H944.57Z" transform="translate(-31.03 -79.42)" fill="#3f3d56"/><path d="M254.65,649.8v46.88a14.8,14.8,0,0,0,14.8,14.8H929.77a14.8,14.8,0,0,0,14.8-14.8V649.8Z" transform="translate(-31.03 -79.42)" fill="#3f3d56"/><rect x="252.17" y="184.3" width="636.23" height="359.81" fill="#2f2e41"/><path d="M603,693.69a15.4,15.4,0,0,0,12.13-5.89h0a15.28,15.28,0,0,0,1.2-1.77l-8.46-1.39,9.15.07a15.5,15.5,0,0,0,.3-12.22l-12.28,6.37,11.32-8.32a15.42,15.42,0,1,0-25.47,17.26h0A15.4,15.4,0,0,0,603,693.69Z" transform="translate(-31.03 -79.42)" fill="#00c58e"/><polygon points="587.42 632.06 658.51 703.45 647.6 632.06 587.42 632.06" opacity="0.1"/><path d="M809.38,760.2,828.53,749a46.37,46.37,0,0,0-9.79-11.71l-36.11,11.23,28.29-16.64a46,46,0,0,0-68.1,40.35c0,25.41,20.6,26.29,46,26.29s46-.88,46-26.29a45.9,45.9,0,0,0-3.94-18.66Z" transform="translate(-31.03 -79.42)" fill="#57b894"/><path d="M814.26,784.9a36.2,36.2,0,0,0-6.79-5.33c-3.47-2.31-7.07-4.66-11.17-5.45-3.59-.69-7.31-.11-11-.31a25.65,25.65,0,0,1-16.81-7.71c-2.62-2.7-4.67-6-7.82-8.09-3.39-2.22-7.69-2.7-11.7-2.15a31.41,31.41,0,0,0-3.47.72,45.8,45.8,0,0,0-2.72,15.6c0,25.41,20.6,26.29,46,26.29,12.33,0,23.53-.21,31.79-3.33l-1.38-2.58A36.08,36.08,0,0,0,814.26,784.9Z" transform="translate(-31.03 -79.42)" opacity="0.1"/><rect x="280.43" y="323.11" width="21.15" height="6.42" fill="#00c58e" opacity="0.3"/><rect x="844.78" y="323.3" width="21.15" height="6.42" fill="#00c58e" opacity="0.3"/><rect x="280.62" y="368.24" width="21.15" height="6.42" fill="#00c58e" opacity="0.3"/><rect x="280.81" y="413.37" width="21.15" height="6.42" fill="#00c58e" opacity="0.3"/><rect x="281" y="458.49" width="21.15" height="6.42" fill="#00c58e" opacity="0.3"/><g opacity="0.2"><rect x="301.58" y="326.2" width="6" height="0.25" fill="#f2f2f2"/><path d="M857.64,405.87H845.85v-.25h11.79Zm-23.59,0H822.26v-.25h11.79Zm-23.59,0h-11.8v-.25h11.8Zm-23.59,0h-11.8v-.25h11.8Zm-23.59,0h-11.8v-.25h11.8Zm-23.6,0H727.89v-.25h11.79Zm-23.59,0h-11.8v-.25h11.8Zm-23.59,0H680.7v-.25h11.8Zm-23.59,0h-11.8v-.25h11.8Zm-23.6,0H633.52v-.25h11.79Zm-23.59,0h-11.8v-.25h11.8Zm-23.59,0h-11.8v-.25h11.8Zm-23.59,0h-11.8v-.25h11.8Zm-23.6,0H539.15v-.25h11.79Zm-23.59,0H515.56v-.25h11.79Zm-23.59,0H492v-.25h11.8Zm-23.59,0h-11.8v-.25h11.8Zm-23.6,0H444.78v-.25h11.79Zm-23.59,0H421.19v-.25H433Zm-23.59,0h-11.8v-.25h11.8Zm-23.59,0H374v-.25h11.8Zm-23.6,0H350.41v-.25H362.2Z" transform="translate(-31.03 -79.42)" fill="#f2f2f2"/><rect x="838.41" y="326.2" width="6" height="0.25" fill="#f2f2f2"/><rect x="301.58" y="326.2" width="6" height="0.25" fill="#f2f2f2"/><path d="M857.64,405.87H845.85v-.25h11.79Zm-23.59,0H822.26v-.25h11.79Zm-23.59,0h-11.8v-.25h11.8Zm-23.59,0h-11.8v-.25h11.8Zm-23.59,0h-11.8v-.25h11.8Zm-23.6,0H727.89v-.25h11.79Zm-23.59,0h-11.8v-.25h11.8Zm-23.59,0H680.7v-.25h11.8Zm-23.59,0h-11.8v-.25h11.8Zm-23.6,0H633.52v-.25h11.79Zm-23.59,0h-11.8v-.25h11.8Zm-23.59,0h-11.8v-.25h11.8Zm-23.59,0h-11.8v-.25h11.8Zm-23.6,0H539.15v-.25h11.79Zm-23.59,0H515.56v-.25h11.79Zm-23.59,0H492v-.25h11.8Zm-23.59,0h-11.8v-.25h11.8Zm-23.6,0H444.78v-.25h11.79Zm-23.59,0H421.19v-.25H433Zm-23.59,0h-11.8v-.25h11.8Zm-23.59,0H374v-.25h11.8Zm-23.6,0H350.41v-.25H362.2Z" transform="translate(-31.03 -79.42)" fill="#f2f2f2"/><rect x="838.41" y="326.2" width="6" height="0.25" fill="#f2f2f2"/></g><rect x="280.43" y="278.11" width="21.15" height="6.42" fill="#00c58e" opacity="0.3"/><rect x="844.78" y="278.3" width="21.15" height="6.42" fill="#00c58e" opacity="0.3"/><g opacity="0.2"><rect x="301.58" y="281.2" width="6" height="0.25" fill="#f2f2f2"/><path d="M857.64,360.87H845.85v-.25h11.79Zm-23.59,0H822.26v-.25h11.79Zm-23.59,0h-11.8v-.25h11.8Zm-23.59,0h-11.8v-.25h11.8Zm-23.59,0h-11.8v-.25h11.8Zm-23.6,0H727.89v-.25h11.79Zm-23.59,0h-11.8v-.25h11.8Zm-23.59,0H680.7v-.25h11.8Zm-23.59,0h-11.8v-.25h11.8Zm-23.6,0H633.52v-.25h11.79Zm-23.59,0h-11.8v-.25h11.8Zm-23.59,0h-11.8v-.25h11.8Zm-23.59,0h-11.8v-.25h11.8Zm-23.6,0H539.15v-.25h11.79Zm-23.59,0H515.56v-.25h11.79Zm-23.59,0H492v-.25h11.8Zm-23.59,0h-11.8v-.25h11.8Zm-23.6,0H444.78v-.25h11.79Zm-23.59,0H421.19v-.25H433Zm-23.59,0h-11.8v-.25h11.8Zm-23.59,0H374v-.25h11.8Zm-23.6,0H350.41v-.25H362.2Z" transform="translate(-31.03 -79.42)" fill="#f2f2f2"/><rect x="838.41" y="281.2" width="6" height="0.25" fill="#f2f2f2"/></g><rect x="844.78" y="368.24" width="21.15" height="6.42" fill="#00c58e" opacity="0.3"/><g opacity="0.2"><rect x="301.58" y="371.14" width="6" height="0.25" fill="#f2f2f2"/><path d="M857.64,450.8H845.85v-.25h11.79Zm-23.59,0H822.26v-.25h11.79Zm-23.59,0h-11.8v-.25h11.8Zm-23.59,0h-11.8v-.25h11.8Zm-23.59,0h-11.8v-.25h11.8Zm-23.6,0H727.89v-.25h11.79Zm-23.59,0h-11.8v-.25h11.8Zm-23.59,0H680.7v-.25h11.8Zm-23.59,0h-11.8v-.25h11.8Zm-23.6,0H633.52v-.25h11.79Zm-23.59,0h-11.8v-.25h11.8Zm-23.59,0h-11.8v-.25h11.8Zm-23.59,0h-11.8v-.25h11.8Zm-23.6,0H539.15v-.25h11.79Zm-23.59,0H515.56v-.25h11.79Zm-23.59,0H492v-.25h11.8Zm-23.59,0h-11.8v-.25h11.8Zm-23.6,0H444.78v-.25h11.79Zm-23.59,0H421.19v-.25H433Zm-23.59,0h-11.8v-.25h11.8Zm-23.59,0H374v-.25h11.8Zm-23.6,0H350.41v-.25H362.2Z" transform="translate(-31.03 -79.42)" fill="#f2f2f2"/><rect x="838.41" y="371.14" width="6" height="0.25" fill="#f2f2f2"/><rect x="301.58" y="371.14" width="6" height="0.25" fill="#f2f2f2"/><path d="M857.64,450.8H845.85v-.25h11.79Zm-23.59,0H822.26v-.25h11.79Zm-23.59,0h-11.8v-.25h11.8Zm-23.59,0h-11.8v-.25h11.8Zm-23.59,0h-11.8v-.25h11.8Zm-23.6,0H727.89v-.25h11.79Zm-23.59,0h-11.8v-.25h11.8Zm-23.59,0H680.7v-.25h11.8Zm-23.59,0h-11.8v-.25h11.8Zm-23.6,0H633.52v-.25h11.79Zm-23.59,0h-11.8v-.25h11.8Zm-23.59,0h-11.8v-.25h11.8Zm-23.59,0h-11.8v-.25h11.8Zm-23.6,0H539.15v-.25h11.79Zm-23.59,0H515.56v-.25h11.79Zm-23.59,0H492v-.25h11.8Zm-23.59,0h-11.8v-.25h11.8Zm-23.6,0H444.78v-.25h11.79Zm-23.59,0H421.19v-.25H433Zm-23.59,0h-11.8v-.25h11.8Zm-23.59,0H374v-.25h11.8Zm-23.6,0H350.41v-.25H362.2Z" transform="translate(-31.03 -79.42)" fill="#f2f2f2"/><rect x="838.41" y="371.14" width="6" height="0.25" fill="#f2f2f2"/></g><rect x="844.78" y="413.18" width="21.15" height="6.42" fill="#00c58e" opacity="0.3"/><g opacity="0.2"><rect x="301.58" y="416.07" width="6" height="0.25" fill="#f2f2f2"/><path d="M857.64,495.74H845.85v-.25h11.79Zm-23.59,0H822.26v-.25h11.79Zm-23.59,0h-11.8v-.25h11.8Zm-23.59,0h-11.8v-.25h11.8Zm-23.59,0h-11.8v-.25h11.8Zm-23.6,0H727.89v-.25h11.79Zm-23.59,0h-11.8v-.25h11.8Zm-23.59,0H680.7v-.25h11.8Zm-23.59,0h-11.8v-.25h11.8Zm-23.6,0H633.52v-.25h11.79Zm-23.59,0h-11.8v-.25h11.8Zm-23.59,0h-11.8v-.25h11.8Zm-23.59,0h-11.8v-.25h11.8Zm-23.6,0H539.15v-.25h11.79Zm-23.59,0H515.56v-.25h11.79Zm-23.59,0H492v-.25h11.8Zm-23.59,0h-11.8v-.25h11.8Zm-23.6,0H444.78v-.25h11.79Zm-23.59,0H421.19v-.25H433Zm-23.59,0h-11.8v-.25h11.8Zm-23.59,0H374v-.25h11.8Zm-23.6,0H350.41v-.25H362.2Z" transform="translate(-31.03 -79.42)" fill="#f2f2f2"/><rect x="838.41" y="416.07" width="6" height="0.25" fill="#f2f2f2"/><rect x="301.58" y="416.07" width="6" height="0.25" fill="#f2f2f2"/><path d="M857.64,495.74H845.85v-.25h11.79Zm-23.59,0H822.26v-.25h11.79Zm-23.59,0h-11.8v-.25h11.8Zm-23.59,0h-11.8v-.25h11.8Zm-23.59,0h-11.8v-.25h11.8Zm-23.6,0H727.89v-.25h11.79Zm-23.59,0h-11.8v-.25h11.8Zm-23.59,0H680.7v-.25h11.8Zm-23.59,0h-11.8v-.25h11.8Zm-23.6,0H633.52v-.25h11.79Zm-23.59,0h-11.8v-.25h11.8Zm-23.59,0h-11.8v-.25h11.8Zm-23.59,0h-11.8v-.25h11.8Zm-23.6,0H539.15v-.25h11.79Zm-23.59,0H515.56v-.25h11.79Zm-23.59,0H492v-.25h11.8Zm-23.59,0h-11.8v-.25h11.8Zm-23.6,0H444.78v-.25h11.79Zm-23.59,0H421.19v-.25H433Zm-23.59,0h-11.8v-.25h11.8Zm-23.59,0H374v-.25h11.8Zm-23.6,0H350.41v-.25H362.2Z" transform="translate(-31.03 -79.42)" fill="#f2f2f2"/><rect x="838.41" y="416.07" width="6" height="0.25" fill="#f2f2f2"/></g><rect x="844.78" y="458.11" width="21.15" height="6.42" fill="#00c58e" opacity="0.3"/><g opacity="0.2"><rect x="301.58" y="461.01" width="6" height="0.25" fill="#f2f2f2"/><path d="M857.64,540.68H845.85v-.25h11.79Zm-23.59,0H822.26v-.25h11.79Zm-23.59,0h-11.8v-.25h11.8Zm-23.59,0h-11.8v-.25h11.8Zm-23.59,0h-11.8v-.25h11.8Zm-23.6,0H727.89v-.25h11.79Zm-23.59,0h-11.8v-.25h11.8Zm-23.59,0H680.7v-.25h11.8Zm-23.59,0h-11.8v-.25h11.8Zm-23.6,0H633.52v-.25h11.79Zm-23.59,0h-11.8v-.25h11.8Zm-23.59,0h-11.8v-.25h11.8Zm-23.59,0h-11.8v-.25h11.8Zm-23.6,0H539.15v-.25h11.79Zm-23.59,0H515.56v-.25h11.79Zm-23.59,0H492v-.25h11.8Zm-23.59,0h-11.8v-.25h11.8Zm-23.6,0H444.78v-.25h11.79Zm-23.59,0H421.19v-.25H433Zm-23.59,0h-11.8v-.25h11.8Zm-23.59,0H374v-.25h11.8Zm-23.6,0H350.41v-.25H362.2Z" transform="translate(-31.03 -79.42)" fill="#f2f2f2"/><rect x="838.41" y="461.01" width="6" height="0.25" fill="#f2f2f2"/><rect x="301.58" y="461.01" width="6" height="0.25" fill="#f2f2f2"/><path d="M857.64,540.68H845.85v-.25h11.79Zm-23.59,0H822.26v-.25h11.79Zm-23.59,0h-11.8v-.25h11.8Zm-23.59,0h-11.8v-.25h11.8Zm-23.59,0h-11.8v-.25h11.8Zm-23.6,0H727.89v-.25h11.79Zm-23.59,0h-11.8v-.25h11.8Zm-23.59,0H680.7v-.25h11.8Zm-23.59,0h-11.8v-.25h11.8Zm-23.6,0H633.52v-.25h11.79Zm-23.59,0h-11.8v-.25h11.8Zm-23.59,0h-11.8v-.25h11.8Zm-23.59,0h-11.8v-.25h11.8Zm-23.6,0H539.15v-.25h11.79Zm-23.59,0H515.56v-.25h11.79Zm-23.59,0H492v-.25h11.8Zm-23.59,0h-11.8v-.25h11.8Zm-23.6,0H444.78v-.25h11.79Zm-23.59,0H421.19v-.25H433Zm-23.59,0h-11.8v-.25h11.8Zm-23.59,0H374v-.25h11.8Zm-23.6,0H350.41v-.25H362.2Z" transform="translate(-31.03 -79.42)" fill="#f2f2f2"/><rect x="838.41" y="461.01" width="6" height="0.25" fill="#f2f2f2"/></g><line x1="370.53" y1="281.51" x2="370.53" y2="461.7" fill="none" stroke="#f2f2f2" stroke-miterlimit="10" stroke-width="0.1"/><line x1="443.53" y1="281.51" x2="443.53" y2="461.7" fill="none" stroke="#f2f2f2" stroke-miterlimit="10" stroke-width="0.1"/><line x1="516.53" y1="281.51" x2="516.53" y2="461.7" fill="none" stroke="#f2f2f2" stroke-miterlimit="10" stroke-width="0.1"/><line x1="589.53" y1="281.51" x2="589.53" y2="461.7" fill="none" stroke="#f2f2f2" stroke-miterlimit="10" stroke-width="0.1"/><line x1="662.53" y1="281.51" x2="662.53" y2="461.7" fill="none" stroke="#f2f2f2" stroke-miterlimit="10" stroke-width="0.1"/><line x1="735.53" y1="281.51" x2="735.53" y2="461.7" fill="none" stroke="#f2f2f2" stroke-miterlimit="10" stroke-width="0.1"/><line x1="808.53" y1="281.51" x2="808.53" y2="461.7" fill="none" stroke="#f2f2f2" stroke-miterlimit="10" stroke-width="0.1"/><path d="M855.35,348.77l-8.35,8.7a2.55,2.55,0,0,0-.42.61l-5.18,10.67a2.36,2.36,0,0,1-2.31,1.33l-1.66-.13a2.36,2.36,0,0,1-2.1-1.7l-1.6-5.54a2.37,2.37,0,0,0-4.52-.11l-2.69,7.88a2.37,2.37,0,0,1-2.25,1.61H814a2.38,2.38,0,0,1-2.34-2l-2.9-18.15a2.37,2.37,0,0,0-4.46-.7l-14.87,29.35a2.37,2.37,0,0,1-3.48.87l-8.84-6.24a2.39,2.39,0,0,0-3.17.38l-3.35,3.87a2.26,2.26,0,0,0-.26.37l-8.94,15.47a2.35,2.35,0,0,1-2.29,1.17l-5.45-.54a2.39,2.39,0,0,0-1.12.16l-4.88,1.95a2.37,2.37,0,0,1-3-1.25l-1.07-2.45a2.38,2.38,0,0,0-2.28-1.42l-5.58.26a2.34,2.34,0,0,0-1.77.93l-1.58,2.06a2.37,2.37,0,0,1-4.12-.66l-2-5.65a2.37,2.37,0,0,0-3.66-1.11l-9.5,7.12-10.5,8.47a2.38,2.38,0,0,1-2.58.26l-8.15-4.23a2.39,2.39,0,0,0-1.42-.24l-16.51,2.31a2.38,2.38,0,0,0-2,1.82L669,417a2.37,2.37,0,0,1-3.85,1.27h0a2.38,2.38,0,0,0-3.67.74l-2.25,4.51a2.4,2.4,0,0,1-1.73,1.28l-5.11.85a2.38,2.38,0,0,0-.92.37l-8.05,5.36a2.35,2.35,0,0,1-1.31.4h-3.77a2.37,2.37,0,0,1-2.18-1.43l-1-2.39a2.37,2.37,0,0,0-3.18-1.19l-8.74,4.09a2.38,2.38,0,0,1-2.23-.11l-4-2.41a2.39,2.39,0,0,0-1.22-.34h-8.83a2.37,2.37,0,0,0-1.31.4l-8.81,5.85a2.37,2.37,0,0,1-2.32.17l-4-1.89a2.37,2.37,0,0,0-2.79.59l-1.9,2.17a2.36,2.36,0,0,1-3.85-.4l-.57-1a2.37,2.37,0,0,0-3.28-.88l-6.93,4.11a2.37,2.37,0,0,1-2.36,0l-2.86-1.59a2.35,2.35,0,0,0-2.13-.09l-2.72,1.24a2.39,2.39,0,0,1-3.25-1.44L556.12,430a2.35,2.35,0,0,0-2.26-1.65H551.3a2.32,2.32,0,0,1-1.15-.3l-9.83-5.39a2.38,2.38,0,0,0-2.56.19l-7.21,5.4a2.35,2.35,0,0,1-1.42.47h-9.07a2.35,2.35,0,0,0-1.31.4l-1.7,1.13a2.37,2.37,0,0,1-3.44-.91l-.41-.81a2.36,2.36,0,0,0-2.12-1.32h-4.55a2.37,2.37,0,0,0-1.87.92l-2.82,3.61a2.37,2.37,0,0,1-3.87-.19l-.8-1.25a2.36,2.36,0,0,0-3.22-.76l-2.34,1.4a2.38,2.38,0,0,1-2.61-.11L479.57,424a2.86,2.86,0,0,0-.54-.3l-7.37-2.83a2.37,2.37,0,0,0-3,1.32l-5.13,12.5a2.14,2.14,0,0,0-.15.55l-1.66,11.26a2.38,2.38,0,0,1-.62,1.27l-3.51,3.77a2.39,2.39,0,0,1-2.89.45l-6.09-3.38a2.37,2.37,0,0,0-3.4,1.3l-3.86,11.29a2.27,2.27,0,0,0-.13.77v7.12a2.37,2.37,0,0,1-1.43,2.17L433.6,474a2.37,2.37,0,0,1-2.15-.14l-4.66-2.74a2.37,2.37,0,0,0-1.54-.3l-8.17,1.17a2.36,2.36,0,0,1-2.38-1.16l-1.38-2.36a2.35,2.35,0,0,0-1.34-1.06l-3.71-1.16a2.36,2.36,0,0,0-2.47.67l-5.15,5.72a2.4,2.4,0,0,1-1.57.78l-7.6.64a2.24,2.24,0,0,0-1,.3l-13.25,7.62a2.38,2.38,0,0,1-2.66-.21l-3.76-3a2.4,2.4,0,0,0-1.48-.52H355.09a2.35,2.35,0,0,1-1.85-.89l-3.59-4.48a2.37,2.37,0,0,0-3.61-.1l-4.32,4.8a2.37,2.37,0,0,0-.61,1.58v59.64a2.37,2.37,0,0,0,2.37,2.37H857.21a2.37,2.37,0,0,0,2.37-2.38l-.14-188.33A2.38,2.38,0,0,0,855.35,348.77Z" transform="translate(-31.03 -79.42)" fill="#00c58e" opacity="0.3"/><path d="M854.89,426l-7.74,5.16a3,3,0,0,0-.71.67l-4.81,6.35a3,3,0,0,1-2.48,1.16l-1.57-.08a2.94,2.94,0,0,1-2.53-1.72l-1-2.13a2.92,2.92,0,0,0-5.25-.17l-2,3.83a2.92,2.92,0,0,1-2.59,1.55h-9.92a2.91,2.91,0,0,1-2.84-2.22l-2.38-9.53a2.93,2.93,0,0,0-5.14-1.11l-14.3,18.08a2.91,2.91,0,0,1-3.5.85l-9.19-4.15a2.93,2.93,0,0,0-3,.31l-3.29,2.43a2.72,2.72,0,0,0-.43.4l-8.68,9.61a2.93,2.93,0,0,1-2.36,1l-5.67-.36a3.16,3.16,0,0,0-.92.08l-5.11,1.31a2.92,2.92,0,0,1-3.15-1.18l-.58-.86a2.93,2.93,0,0,0-2.5-1.27l-5.7.17a2.82,2.82,0,0,0-1.79.68l-1.4,1.17a2.93,2.93,0,0,1-4.45-.83l-1.48-2.68a2.93,2.93,0,0,0-3.83-1.23l-9.59,4.61-10.61,5.48a2.91,2.91,0,0,1-2.26.17l-8.45-2.8a3,3,0,0,0-1.18-.14L674.15,460a3,3,0,0,0-2.5,1.93l-2.37,6.62a2.93,2.93,0,0,1-4.16,1.58l-.1-.05a2.91,2.91,0,0,0-3.71.76l-1.86,2.38a3,3,0,0,1-2,1.11l-5.12.55a3,3,0,0,0-.84.21l-8.11,3.47a3.06,3.06,0,0,1-1.15.23h-3.9a2.93,2.93,0,0,1-2.42-1.28l-.56-.82a2.93,2.93,0,0,0-3.26-1.15L623,478.29a2.94,2.94,0,0,1-1.9-.07l-4.22-1.62a2.88,2.88,0,0,0-1-.2h-9.06a2.81,2.81,0,0,0-1.14.24l-9,3.82a2.9,2.9,0,0,1-2,.11l-4.45-1.33a2.94,2.94,0,0,0-2.57.44l-1.95,1.43a2.93,2.93,0,0,1-3.93-.43l-.29-.33a2.93,2.93,0,0,0-3.24-.81L571,482.31a2.92,2.92,0,0,1-2,0l-3.18-1.14a3,3,0,0,0-1.8-.05l-3,.87a2.93,2.93,0,0,1-3.43-1.5l-1.12-2.25a2.94,2.94,0,0,0-2.62-1.62h-2.6a2.9,2.9,0,0,1-1-.16l-10.09-3.54a2.9,2.9,0,0,0-2.24.12l-7.37,3.54a3,3,0,0,1-1.27.29h-9.31a3.06,3.06,0,0,0-1.15.23l-1.9.82a2.94,2.94,0,0,1-3.46-.89h0a2.92,2.92,0,0,0-2.31-1.13h-4.7a2.94,2.94,0,0,0-1.86.66l-2.73,2.24a2.91,2.91,0,0,1-3.93-.2l-.62-.62a2.93,2.93,0,0,0-3.13-.67l-2.72,1.05a3,3,0,0,1-2.29-.08l-9.57-4.44a2.37,2.37,0,0,0-.53-.18l-7.51-1.85a2.91,2.91,0,0,0-3.16,1.26l-4.72,7.36a3,3,0,0,0-.39.92l-1.43,6.25a3,3,0,0,1-1.2,1.76l-3.12,2.14a2.9,2.9,0,0,1-2.63.34l-6.42-2.28A2.93,2.93,0,0,0,444.9,491l-3.38,6.32a3,3,0,0,0-.34,1.38v2.85a2.94,2.94,0,0,1-2.15,2.82l-5.62,1.56a2.88,2.88,0,0,1-1.81-.08L426.7,504a2.88,2.88,0,0,0-1.3-.18l-8.45.77a2.9,2.9,0,0,1-2.43-.94l-1-1.11a2.84,2.84,0,0,0-1.59-.9l-3.85-.78a3,3,0,0,0-2.28.49l-5.07,3.61a3,3,0,0,1-1.54.54l-7.77.41a3.06,3.06,0,0,0-.86.18l-13.49,5a2.86,2.86,0,0,1-2.34-.14l-3.9-2a2.93,2.93,0,0,0-1.33-.32H355a2.93,2.93,0,0,1-1.84-.65l-3.51-2.81a2.93,2.93,0,0,0-3.53-.1l-3.76,2.68a2.94,2.94,0,0,0-1.23,2.39v28.11a2.93,2.93,0,0,0,2.93,2.93H856.65a2.93,2.93,0,0,0,2.93-2.93l-.14-109.77A2.93,2.93,0,0,0,854.89,426Z" transform="translate(-31.03 -79.42)" fill="#00c58e" opacity="0.3"/><circle cx="825.93" cy="345.84" r="7" fill="#00c58e"/><path d="M856.51,494.51,847,497.68a2.49,2.49,0,0,0-.52.25l-5.22,3.45a2.22,2.22,0,0,1-1.28.36l-3.25-.08a2.22,2.22,0,0,1-1.6-.73l-2-2.2a2.23,2.23,0,0,0-3.18-.13l-3.37,3.16a2.2,2.2,0,0,1-1.52.61H813.38a2.21,2.21,0,0,1-2-1.24l-2.67-5.33a2.23,2.23,0,0,0-3.18-.89L789,505.38a2.25,2.25,0,0,1-1.68.29L776,503.12a2.17,2.17,0,0,0-1.26.08l-4.13,1.53a1.41,1.41,0,0,0-.31.14l-9.13,5.06a2.3,2.3,0,0,1-1.15.28l-6.76-.22a2,2,0,0,0-.35,0l-6.5.83a2.27,2.27,0,0,1-1.6-.41l-1.32-1a2.2,2.2,0,0,0-1.35-.43l-7.13.1a2.12,2.12,0,0,0-.83.17l-3.2,1.35a2.24,2.24,0,0,1-2.36-.41L726,507.87a2.22,2.22,0,0,0-2-.51L713.06,510l-11.25,2.91a2.19,2.19,0,0,1-.92,0l-9.5-1.58a3.55,3.55,0,0,0-.46,0l-17.57.79a2.22,2.22,0,0,0-1.71.93L669,516.7a2.22,2.22,0,0,1-2.4.85l-2.83-.78a2.26,2.26,0,0,0-1.79.28l-2.83,1.81a2.29,2.29,0,0,1-1.08.34l-6,.33a2,2,0,0,0-.34,0l-8.66,1.85a2.5,2.5,0,0,1-.47.05h-5.08a2.21,2.21,0,0,1-1.31-.43l-1.32-1a2.19,2.19,0,0,0-1.64-.41l-10.81,1.62a2.36,2.36,0,0,1-.75,0l-5.08-1a2,2,0,0,0-.42,0h-9.75a2.4,2.4,0,0,0-.46,0l-9.89,2.1a2.15,2.15,0,0,1-.8,0l-5.89-.89a2.29,2.29,0,0,0-1.1.12l-3.78,1.38a2.19,2.19,0,0,1-1.87-.16l-1.79-1a2.16,2.16,0,0,0-1.51-.26l-9,1.71a2.21,2.21,0,0,1-.81,0l-4.33-.77a2.42,2.42,0,0,0-.71,0l-4.78.69a2.2,2.2,0,0,1-1.89-.62L556.25,521a2.28,2.28,0,0,0-1.58-.65h-3.79a2.34,2.34,0,0,1-.38,0l-11.06-1.94a2.15,2.15,0,0,0-.91,0l-8.36,2a2.24,2.24,0,0,1-.52.06H519.58a2.31,2.31,0,0,0-.46,0l-3.41.73A2.28,2.28,0,0,1,514,521l-.94-.61a2.24,2.24,0,0,0-1.2-.35h-6.09a2.21,2.21,0,0,0-.84.17l-4.26,1.74a2.19,2.19,0,0,1-1.84-.07l-2.26-1.14a2.25,2.25,0,0,0-1.42-.2l-4.46.86a2.2,2.2,0,0,1-.92,0L479.43,519l-.23,0-8.79-1.09a2.26,2.26,0,0,0-1.64.46l-5,3.88a2.18,2.18,0,0,0-.65.82L462,525.56a2.25,2.25,0,0,1-1.3,1.18l-3.84,1.31a2.1,2.1,0,0,1-1.11.09l-8.54-1.52a2.24,2.24,0,0,0-1.91.57l-3.39,3.17a2.22,2.22,0,0,0-.7,1.63h0a2.22,2.22,0,0,1-1.92,2.2l-6.41.89a2.18,2.18,0,0,1-.72,0l-5.8-1.1a2.24,2.24,0,0,0-.52,0l-9.69.44a2.29,2.29,0,0,1-1.17-.27l-1.7-.93a2.12,2.12,0,0,0-.85-.27l-5.09-.51a2.28,2.28,0,0,0-1,.12l-6,2.13a2.28,2.28,0,0,1-.69.13l-8.53.23a2.07,2.07,0,0,0-.35,0l-14.45,2.67a2.34,2.34,0,0,1-.95,0l-4.92-1.26a2.6,2.6,0,0,0-.56-.07H354.38a2.12,2.12,0,0,1-.83-.16l-4.86-1.94a2.21,2.21,0,0,0-1.58,0l-4.52,1.61a2.21,2.21,0,0,0-1.48,2.09v1a2.22,2.22,0,0,0,2.22,2.23h514a2.22,2.22,0,0,0,2.22-2.23l-.13-42.27A2.23,2.23,0,0,0,856.51,494.51Z" transform="translate(-31.03 -79.42)" fill="#00c58e" opacity="0.3"/><circle cx="440.93" cy="392.84" r="7" fill="#00c58e"/><circle cx="776.93" cy="348.84" r="7" fill="#00c58e"/><circle cx="602.93" cy="395.84" r="7" fill="#00c58e"/><circle cx="693.93" cy="370.84" r="7" fill="#00c58e"/><path d="M860.44,428.42a2.93,2.93,0,0,0-4.55-2.43l-7.74,5.16a3,3,0,0,0-.71.67l-4.81,6.35a3,3,0,0,1-2.48,1.16l-1.57-.08a2.94,2.94,0,0,1-2.53-1.72l-1-2.13a2.92,2.92,0,0,0-5.25-.17l-2,3.83a2.92,2.92,0,0,1-2.59,1.55h-9.92a2.91,2.91,0,0,1-2.84-2.22l-2.38-9.53a2.93,2.93,0,0,0-5.14-1.11l-14.3,18.08a2.91,2.91,0,0,1-3.5.85l-9.19-4.15a2.93,2.93,0,0,0-3,.31l-3.29,2.43a2.72,2.72,0,0,0-.43.4l-8.68,9.61a2.93,2.93,0,0,1-2.36,1l-5.67-.36a3.16,3.16,0,0,0-.92.08l-5.11,1.31a2.92,2.92,0,0,1-3.15-1.18l-.58-.86a2.93,2.93,0,0,0-2.5-1.27l-5.7.17a2.82,2.82,0,0,0-1.79.68l-1.4,1.17a2.93,2.93,0,0,1-4.45-.83l-1.48-2.68a2.93,2.93,0,0,0-3.83-1.23l-9.59,4.61-10.61,5.48a2.91,2.91,0,0,1-2.26.17l-8.45-2.8a3,3,0,0,0-1.18-.14L675.15,460a3,3,0,0,0-2.5,1.93l-2.37,6.62a2.93,2.93,0,0,1-4.16,1.58l-.1-.05a2.91,2.91,0,0,0-3.71.76l-1.86,2.38a3,3,0,0,1-2,1.11l-5.12.55a3,3,0,0,0-.84.21l-8.11,3.47a3.06,3.06,0,0,1-1.15.23h-3.9a2.93,2.93,0,0,1-2.42-1.28l-.56-.82a2.93,2.93,0,0,0-3.26-1.15L624,478.29a2.94,2.94,0,0,1-1.9-.07l-4.22-1.62a2.88,2.88,0,0,0-1-.2h-9.06a2.81,2.81,0,0,0-1.14.24l-9,3.82a2.9,2.9,0,0,1-2,.11l-4.45-1.33a2.94,2.94,0,0,0-2.57.44l-1.95,1.43a2.93,2.93,0,0,1-3.93-.43l-.29-.33a2.93,2.93,0,0,0-3.24-.81L572,482.31a2.92,2.92,0,0,1-2,0l-3.18-1.14a3,3,0,0,0-1.8-.05l-3,.87a2.93,2.93,0,0,1-3.43-1.5l-1.12-2.25a2.94,2.94,0,0,0-2.62-1.62h-2.6a2.9,2.9,0,0,1-1-.16l-10.09-3.54a2.9,2.9,0,0,0-2.24.12l-7.37,3.54a3,3,0,0,1-1.27.29h-9.31a3.06,3.06,0,0,0-1.15.23l-1.9.82a2.94,2.94,0,0,1-3.46-.89h0a2.92,2.92,0,0,0-2.31-1.13h-4.7a2.94,2.94,0,0,0-1.86.66l-2.73,2.24a2.91,2.91,0,0,1-3.93-.2l-.62-.62a2.93,2.93,0,0,0-3.13-.67l-2.72,1.05a3,3,0,0,1-2.29-.08l-9.57-4.44a2.37,2.37,0,0,0-.53-.18l-7.51-1.85a2.91,2.91,0,0,0-3.16,1.26l-4.72,7.36a3,3,0,0,0-.39.92l-1.43,6.25a3,3,0,0,1-1.2,1.76l-3.12,2.14a2.9,2.9,0,0,1-2.63.34l-6.42-2.28A2.93,2.93,0,0,0,445.9,491l-3.38,6.32a3,3,0,0,0-.34,1.38v2.85a2.94,2.94,0,0,1-2.15,2.82l-5.62,1.56a2.88,2.88,0,0,1-1.81-.08L427.7,504a2.88,2.88,0,0,0-1.3-.18l-8.45.77a2.9,2.9,0,0,1-2.43-.94l-1-1.11a2.84,2.84,0,0,0-1.59-.9l-3.85-.78a3,3,0,0,0-2.28.49l-5.07,3.61a3,3,0,0,1-1.54.54l-7.77.41a3.06,3.06,0,0,0-.86.18l-13.49,5a2.86,2.86,0,0,1-2.34-.14l-3.9-2a2.93,2.93,0,0,0-1.33-.32H356a2.93,2.93,0,0,1-1.84-.65l-3.51-2.81a2.93,2.93,0,0,0-3.53-.1l-3.76,2.68a2.94,2.94,0,0,0-1.23,2.39" transform="translate(-31.03 -79.42)" fill="none" stroke="#00c58e" stroke-miterlimit="10"/><rect x="280.93" y="502.79" width="585" height="0.1" fill="#f2f2f2" opacity="0.2"/><circle cx="370.93" cy="502.84" r="5" fill="#00c58e" opacity="0.3"/><circle cx="443.93" cy="502.84" r="5" fill="#00c58e" opacity="0.3"/><circle cx="516.93" cy="502.84" r="5" fill="#00c58e" opacity="0.3"/><circle cx="589.93" cy="502.84" r="5" fill="#00c58e" opacity="0.3"/><circle cx="662.93" cy="502.84" r="5" fill="#00c58e" opacity="0.3"/><circle cx="735.93" cy="502.84" r="5" fill="#00c58e" opacity="0.3"/><circle cx="808.93" cy="502.84" r="5" fill="#00c58e" opacity="0.3"/><path d="M270.73,775.08c-3-5.51.4-12.26,4.29-17.17s8.61-10,8.51-16.29c-.15-9-9.7-14.32-17.33-19.09A84,84,0,0,1,250.64,710a23,23,0,0,1-4.78-6.4c-1.58-3.52-1.54-7.52-1.44-11.37q.51-19.28,1.91-38.49" transform="translate(-31.03 -79.42)" fill="none" stroke="#3f3d56" stroke-miterlimit="10" stroke-width="4"/><path d="M231.82,653.06a14,14,0,0,1,7-11.5l3.14,6.21-.1-7.52a14.22,14.22,0,0,1,4.63-.56,14,14,0,1,1-14.68,13.37Z" transform="translate(-31.03 -79.42)" fill="#57b894"/><path d="M256.85,748.05a14,14,0,1,0-.68-11.3l8.77,7.13-9.65-2.23A14,14,0,0,0,256.85,748.05Z" transform="translate(-31.03 -79.42)" fill="#57b894"/><path d="M263.78,720.8a14,14,0,0,0,4.45-27.53l.08,5.78-3.18-6.29h0a14,14,0,0,0-14.67,13.36,13.84,13.84,0,0,0,.6,4.79A14,14,0,0,0,263.78,720.8Z" transform="translate(-31.03 -79.42)" fill="#57b894"/><path d="M229.71,698.13a14,14,0,1,0-6.21-26.27l2.48,6.8-5.1-4.9a14,14,0,0,0-4.53,9.69,13.79,13.79,0,0,0,.35,3.87A14.05,14.05,0,0,0,229.71,698.13Z" transform="translate(-31.03 -79.42)" fill="#57b894"/><path d="M233.71,656.8c3.24.35,6.39,1.36,9.64,1.56s6.82-.58,8.88-3.1c1.1-1.36,1.66-3.09,2.59-4.57a10,10,0,0,1,3.54-3.33,14,14,0,1,1-26.24,9.32Q232.92,656.71,233.71,656.8Z" transform="translate(-31.03 -79.42)" opacity="0.1"/><path d="M229.71,698.13a14,14,0,0,0,13.35-20,10.37,10.37,0,0,0-2.82,2.82c-1,1.51-1.61,3.25-2.78,4.64-2.19,2.57-5.92,3.41-9.31,3.26s-6.66-1.12-10-1.43c-.47,0-.94-.07-1.42-.08A14.05,14.05,0,0,0,229.71,698.13Z" transform="translate(-31.03 -79.42)" opacity="0.1"/><path d="M263.78,720.8A14,14,0,0,0,277.24,701a11.48,11.48,0,0,0-3,2.85c-1.09,1.54-1.77,3.31-3,4.73-2.37,2.64-6.35,3.57-9.93,3.48s-6.83-.92-10.28-1.19A14,14,0,0,0,263.78,720.8Z" transform="translate(-31.03 -79.42)" opacity="0.1"/><path d="M256.85,748.05a14,14,0,0,0,25.59-11.45,13.8,13.8,0,0,0-3.08,2.74c-1.34,1.63-2.22,3.48-3.76,5-2.87,2.82-7.5,4-11.63,4.09A62.17,62.17,0,0,1,256.85,748.05Z" transform="translate(-31.03 -79.42)" opacity="0.1"/><path d="M291.9,768.74s-11.08-.34-14.42-2.72-17-5.21-17.86-1.4-16.65,19-4.15,19.06,29.06-1.95,32.4-4S291.9,768.74,291.9,768.74Z" transform="translate(-31.03 -79.42)" fill="#656380"/><path d="M255.25,782.35c12.51.1,29.06-1.94,32.39-4,2.54-1.55,3.55-7.1,3.89-9.65h.37s-.7,8.93-4,11-19.89,4.08-32.4,4c-3.61,0-4.85-1.31-4.78-3.21C251.19,781.61,252.56,782.33,255.25,782.35Z" transform="translate(-31.03 -79.42)" opacity="0.2"/></svg>